# xmcd
# 
# Track frame offsets:
#     150
#     19425
#     38025
#     61200
#     86025
#     113400
#     141900
#     161325
#     190275
#     218250
#     235575
#     276675
#     305250
# 
# Disc length: 4364
# 
# Revision: 0
# Processed by: cddbd v1.5.2PL0 Copyright (c) Steve Scherf et al.
# Submitted via: BonkEnc v1.0.6
# 
DISCID=ab110a0d
DTITLE=Aashid Himons and the Mountain Soul Band - West Virginia Hills
DYEAR=1999
DGENRE=Blues
TTITLE0=West Virginia Hills
TTITLE1=Country Blues
TTITLE2=Little Red Rooster
TTITLE3=The Captain's Song
TTITLE4=Got My Mojo Workin'
TTITLE5=Spoonful
TTITLE6=Will the Circle Be Unbroken
TTITLE7=Bacon Fat
TTITLE8=Wish I Was in Heaven
TTITLE9=West Virginia Hills (reprise)
TTITLE10=Voodoo Child/Sweet Mama's Door
TTITLE11=Statesboro Blues
TTITLE12=Why Don't You Love Me
EXTD=
EXTT0=
EXTT1=
EXTT2=
EXTT3=
EXTT4=
EXTT5=
EXTT6=
EXTT7=
EXTT8=
EXTT9=
EXTT10=
EXTT11=
EXTT12=
PLAYORDER=
